<svg viewBox="0 0 32 32" xml:space="preserve" xmlns="http://www.w3.org/2000/svg" enable-background="new 0 0 32 32"><path d="M21.2 4.5v25H10.8v-25c0-1.1.9-1.9 1.9-1.9h6.6c1.1-.1 1.9.8 1.9 1.9z" fill="none" stroke="#43bff8" stroke-width="1.5" stroke-linecap="round" stroke-linejoin="round" stroke-miterlimit="10" class="stroke-000000"></path><path d="M17.4 10h-2.8c-.5 0-.8-.4-.8-.8v-3c0-.5.4-.8.8-.8h2.8c.5 0 .8.4.8.8v3c0 .4-.3.8-.8.8zM17.4 18.3h-2.8c-.5 0-.8-.4-.8-.8v-3c0-.5.4-.8.8-.8h2.8c.5 0 .8.4.8.8v3c0 .4-.3.8-.8.8zM17.4 26.6h-2.8c-.5 0-.8-.4-.8-.8v-3c0-.5.4-.8.8-.8h2.8c.5 0 .8.4.8.8v3c0 .4-.3.8-.8.8zM10.8 5.2v24.2H2.5V13.2c0-.6.2-1.1.7-1.5l7.6-6.5zM4.7 14h3.9M25.4 12.6V8.7M25.4 19.6v-3.9M25.4 26.7v-4M4.7 17.2h3.9M4.7 20.4h3.9M4.7 23.5h3.9M4.7 26.7h3.9M29.5 7.8v21.6h-8.3V5.9h6.4c1 0 1.9.8 1.9 1.9zM1 29.5h30" fill="none" stroke="#43bff8" stroke-width="1.5" stroke-linecap="round" stroke-linejoin="round" stroke-miterlimit="10" class="stroke-000000"></path></svg>