<svg version="1.0" viewBox="0 0 24 24" xml:space="preserve" xmlns="http://www.w3.org/2000/svg"><path d="M8.5 8.6c.2-.6 0-1.2-.6-1.5-.6-.3-1.3 0-1.5.5-.3.5-.1 1.1.4 1.4h1.3c.2-.1.3-.2.4-.4z" fill="#cccccc" class="fill-000000"></path><path d="M4 9h.4l-.1-.4 1.4-3.2.8-.3c.1 0 .1.1.2.1.6.3 1.3 0 1.5-.5v-.2l.8-.2 9.4 4.1.2.6H20c.8 0 1.5.3 2 .8 0-.7-.4-1.4-1.1-1.7L7.5 2.2c-.9-.4-2 0-2.4.9L2.2 9.6C2.7 9.2 3.3 9 4 9z" fill="#cccccc" class="fill-000000"></path><path d="M13.1 7.8c-1.4-.6-2.9 0-3.5 1.2h4.8c-.3-.5-.7-.9-1.3-1.2zM2 12v8c0 1.1.9 2 2 2h16c1.1 0 2-.9 2-2v-8c0-1.1-.9-2-2-2H4c-1.1 0-2 .9-2 2zm18.4 5.9-.7.6h-.2c-.7 0-1.3.5-1.3 1.2v.2l-.7.6H6.4l-.7-.6v-.2c0-.7-.6-1.2-1.3-1.2h-.2l-.7-.6V14l.7-.6h.2c.7 0 1.3-.5 1.3-1.2V12l.7-.6h11.2l.7.6v.2c0 .7.6 1.2 1.3 1.2h.2l.7.6v3.9zM18.8 16c0 .7-.6 1.2-1.3 1.2s-1.3-.5-1.3-1.2.6-1.2 1.3-1.2 1.3.5 1.3 1.2zm-3.7 0c0 1.5-1.3 2.8-3 2.8s-3-1.2-3-2.8 1.3-2.8 3-2.8 3 1.3 3 2.8zm-7.3 0c0 .7-.6 1.2-1.3 1.2s-1.3-.5-1.3-1.2.6-1.2 1.3-1.2 1.3.5 1.3 1.2z" fill="#cccccc" class="fill-000000"></path></svg>